<?xml version="1.0" encoding="UTF-8"?> <svg xmlns="http://www.w3.org/2000/svg" width="2366" height="654" viewBox="0 0 2366 654" fill="none"><g clip-path="url(#clip0_15786_150)"><path d="M379.182 490.441C379.794 490.566 380.419 490.691 381.043 490.791C381.618 488.192 382.13 485.606 382.58 483.02C382.118 484.057 381.656 485.094 381.181 486.156C380.531 487.605 379.856 489.03 379.182 490.441Z" fill="black"></path><path d="M456.351 27.1679C456.351 27.1679 345.508 -27.2973 228.931 70.1628C127.935 154.603 144.84 287.074 144.84 287.074C144.84 287.074 67.447 332.943 45.4685 430.403C23.49 527.876 1.51148 621.512 1.51148 621.512C1.51148 621.512 -9.95883 653.999 30.1748 653.999H219.372C219.372 653.999 399.974 652.087 485.014 427.542H542.34C542.34 427.542 543.29 497.301 502.207 545.069C502.207 545.069 694.266 498.25 733.45 282.301C754.479 150.43 632.166 13.7984 456.351 27.1679ZM570.379 377.85H472.919C441.194 377.85 420.628 393.556 408.345 408.15C417.829 360.144 402.622 338.828 388.516 305.229C388.516 305.229 434.06 310.327 444.893 284.85C444.893 284.85 464.635 312.876 444.255 339.003C444.255 339.003 481.078 328.545 503.506 290.998C493.723 302.73 479.404 316.612 465.909 317.337C465.909 317.337 493.298 267.007 470.37 238.981C447.442 210.955 420.04 216.053 420.04 180.38C420.04 166.598 424.701 156.727 430.424 149.78C422.939 156.952 416.304 166.573 409.82 175.87C407.058 179.843 404.322 183.754 401.56 187.39C387.541 205.87 353.143 246.628 352.505 287.399C351.918 325.221 397.375 399.253 382.568 483.019C382.106 485.605 381.606 488.192 381.031 490.791C380.407 490.691 379.782 490.578 379.17 490.441C356.966 536.885 322.005 566.36 289.644 584.827C310.71 562.986 337.799 516.83 322.63 430.615C317.845 421.407 313.796 412.71 310.46 405.888C297.078 378.499 262.042 358.108 262.042 358.108C268.502 365.742 289.581 411.848 280.81 442.461C279.385 461.69 273.238 486.018 256.945 514.181C226.569 566.635 151 599.809 111.379 614.19H74.0068C87.0515 605.369 116.452 583.665 142.841 551.191C172.417 514.794 198.206 464.876 192.946 404.401C174.216 482.182 96.4352 527.838 67.0097 542.607C76.6433 502.461 89.0757 453.681 100.234 419.258C122.525 350.461 195.782 304.592 195.782 304.592C195.782 304.592 195.607 303.78 195.345 302.255C194.233 295.958 191.409 277.428 191.846 253.563C192.433 220.989 199.093 178.456 224.445 143.433C231.068 134.274 237.815 125.903 244.725 118.243C288.344 69.9254 339.211 51.0956 416.192 59.3423C472.232 65.3523 488.525 95.9898 492.898 117.943H548.051C579.263 117.943 678.01 135.786 678.01 251.076C678.01 366.367 570.354 377.85 570.354 377.85H570.379Z" fill="black"></path><path d="M456.351 27.1696C456.351 27.1696 497.309 64.9542 495.085 117.945H548.088C579.301 117.945 678.048 135.788 678.048 251.078C678.048 366.368 570.392 377.851 570.392 377.851H472.932C441.207 377.851 420.64 393.557 408.358 408.151C408.708 406.414 409.008 404.715 409.283 403.041L402.061 427.543H542.366C542.366 427.543 543.315 497.302 502.232 545.07C502.232 545.07 694.291 498.252 733.475 282.303C754.479 150.432 632.166 13.8001 456.351 27.1696Z" fill="black"></path><path d="M548.088 117.944H492.935C494.222 124.392 494.485 130.077 494.41 134.187C494.372 136.724 494.21 138.648 494.085 139.76C494.01 140.485 493.948 140.872 493.948 140.872C517.513 154.254 532.169 196.924 516.238 259.999C513.215 271.956 508.754 282.214 503.506 290.986C481.065 328.521 444.255 338.991 444.255 338.991C464.634 312.877 444.893 284.838 444.893 284.838C434.059 310.315 388.516 305.218 388.516 305.218C402.11 337.592 416.729 358.571 409.27 403.028C408.995 404.702 408.682 406.389 408.345 408.138C420.615 393.544 441.194 377.838 472.919 377.838H570.379C570.379 377.838 678.035 366.368 678.035 251.065C678.035 135.762 579.3 117.932 548.075 117.932L548.088 117.944ZM589.496 280.39C570.504 280.39 555.098 264.984 555.098 245.992C555.098 227 570.504 211.593 589.496 211.593C608.488 211.593 623.894 227 623.894 245.992C623.894 264.984 608.488 280.39 589.496 280.39Z" fill="#7CB518"></path><path d="M303.513 180.144C303.076 179.794 302.639 179.469 302.201 179.107C267.166 150.443 299.015 94.3789 299.015 94.3789L255.058 121.13L244.762 118.232C237.84 125.891 231.105 134.263 224.483 143.421C199.131 178.445 192.471 220.977 191.884 253.551C264.004 237.108 293.142 199.111 303.526 180.119L303.513 180.144Z" fill="#FBB02D"></path><path d="M335.913 196.051C325.53 194.064 314.684 189.003 303.514 180.145C293.13 199.137 263.992 237.134 191.872 253.577C191.434 277.442 194.258 295.972 195.37 302.27C214.288 293.323 244.775 279.454 262.693 274.031C285.284 267.196 324.343 223.102 335.913 196.063V196.051Z" fill="#FBB02D"></path><path d="M589.496 280.391C608.494 280.391 623.895 264.99 623.895 245.992C623.895 226.994 608.494 211.594 589.496 211.594C570.498 211.594 555.098 226.994 555.098 245.992C555.098 264.99 570.498 280.391 589.496 280.391Z" fill="white"></path><path d="M436.272 117.945C441.407 115.184 447.68 113.347 455.714 112.847C463.011 112.847 469.558 114.934 475.206 117.945C483.94 122.593 490.525 129.44 494.411 134.188C494.473 130.09 494.211 124.392 492.936 117.945C488.563 95.9916 472.27 65.3416 416.23 59.3441C339.249 51.0974 288.382 69.9272 244.763 118.245L255.058 121.144L299.016 94.3922C299.016 94.3922 267.166 150.444 302.202 179.12C302.639 179.482 303.076 179.807 303.514 180.157C314.684 189.016 325.53 194.076 335.913 196.063C357.617 200.224 377.333 191.04 393.927 175.297C396.213 173.135 398.25 170.861 400.099 168.512C414.456 150.369 417.754 127.954 436.272 117.97V117.945ZM352.656 170.624C331.24 170.624 313.884 153.268 313.884 131.852C313.884 110.436 331.24 93.0803 352.656 93.0803C374.072 93.0803 391.428 110.436 391.428 131.852C391.428 153.268 374.072 170.624 352.656 170.624Z" fill="white"></path><path d="M493.936 140.886C493.936 140.886 493.998 140.486 494.073 139.774C484.515 137.575 469.133 135.75 448.704 138.974C441.957 140.498 435.96 144.472 430.424 149.782C424.702 156.717 420.041 166.6 420.041 180.382C420.041 216.055 447.43 210.957 470.37 238.983C493.299 267.009 465.91 317.339 465.91 317.339C479.404 316.614 493.723 302.732 503.507 290.999C508.755 282.215 513.215 271.957 516.239 260.012C532.17 196.95 517.514 154.268 493.948 140.886H493.936Z" fill="#F0533E"></path><path d="M494.073 139.762C494.197 138.637 494.36 136.725 494.397 134.189C490.511 129.441 483.927 122.594 475.193 117.946C469.545 114.934 462.998 112.848 455.701 112.848C447.666 113.347 441.382 115.172 436.259 117.946C417.741 127.929 414.443 150.345 400.086 168.487L409.819 175.859C416.292 166.563 422.939 156.955 430.424 149.77C435.959 144.46 441.956 140.486 448.704 138.962C469.133 135.738 484.526 137.55 494.073 139.762Z" fill="white"></path><path d="M322.643 430.617C337.812 516.832 310.723 562.976 289.656 584.829C322.018 566.362 356.979 536.886 379.182 490.443C354.505 485.245 335.8 455.969 322.643 430.617Z" fill="black"></path><path d="M393.927 175.284C377.333 191.027 357.616 200.211 335.913 196.05C324.355 223.089 285.296 267.196 262.693 274.018C244.762 279.441 214.287 293.31 195.37 302.257C195.645 303.781 195.808 304.593 195.808 304.593C195.808 304.593 122.55 350.462 100.259 419.259C89.1011 453.682 76.6687 502.462 67.0352 542.608C96.4606 527.839 174.241 482.171 192.971 404.402C197.294 386.435 198.469 366.768 195.17 345.364C195.17 345.364 281.947 412.199 191.522 530.388C224.108 513.308 259.706 487.281 277.986 449.834C279.173 447.51 280.098 445.036 280.835 442.449C289.594 411.837 268.528 365.731 262.068 358.096C262.068 358.096 297.104 378.476 310.486 405.877C313.822 412.712 317.87 421.395 322.656 430.604C335.813 455.956 354.53 485.232 379.195 490.43C379.87 489.018 380.544 487.593 381.194 486.144C381.669 485.082 382.131 484.045 382.594 483.008C397.4 399.242 351.931 325.222 352.531 287.388C353.168 246.617 387.567 205.846 401.586 187.379C404.347 183.743 407.084 179.832 409.845 175.858L400.112 168.486C398.25 170.835 396.213 173.109 393.939 175.271L393.927 175.284Z" fill="#FBB02D"></path><path d="M277.986 449.833C259.719 487.28 224.108 513.307 191.522 530.388C281.947 412.198 195.17 345.363 195.17 345.363C198.469 366.767 197.294 386.434 192.971 404.402C198.231 464.877 172.442 514.794 142.867 551.192C116.465 583.678 87.0769 605.382 74.0322 614.191H111.404C151.026 599.809 226.595 566.635 256.97 514.182C273.276 486.018 279.423 461.703 280.835 442.461C280.098 445.035 279.173 447.522 277.986 449.846V449.833Z" fill="black"></path><path d="M362 169.11C382.841 164.192 395.748 143.31 390.829 122.469C385.91 101.629 365.028 88.7219 344.188 93.6406C323.348 98.5594 310.441 119.441 315.359 140.282C320.278 161.122 341.16 174.029 362 169.11Z" fill="black"></path><path d="M365.908 134.044C373.297 132.301 377.873 124.897 376.129 117.509C374.385 110.12 366.982 105.544 359.593 107.288C352.205 109.032 347.629 116.435 349.372 123.824C351.116 131.212 358.52 135.788 365.908 134.044Z" fill="white"></path></g><g filter="url(#filter0_d_15786_150)"><path d="M1047.46 236.437C1047.46 251.863 1043.92 266.025 1036.84 278.923C1029.76 291.567 1018.89 301.809 1004.22 309.649C989.551 317.488 971.343 321.408 949.594 321.408H909.385V417H844.519V150.708H949.594C970.837 150.708 988.792 154.375 1003.46 161.708C1018.13 169.042 1029.13 179.158 1036.46 192.055C1043.8 204.952 1047.46 219.746 1047.46 236.437ZM944.663 269.819C957.054 269.819 966.285 266.91 972.354 261.094C978.423 255.277 981.458 247.058 981.458 236.437C981.458 225.816 978.423 217.597 972.354 211.78C966.285 205.964 957.054 203.056 944.663 203.056H909.385V269.819H944.663ZM1068.33 310.787C1068.33 289.038 1072.38 269.945 1080.47 253.507C1088.82 237.069 1100.07 224.425 1114.23 215.574C1128.4 206.723 1144.2 202.297 1161.65 202.297C1176.57 202.297 1189.59 205.332 1200.72 211.401C1212.1 217.47 1220.83 225.436 1226.9 235.299V205.332H1291.76V417H1226.9V387.033C1220.57 396.895 1211.72 404.861 1200.34 410.931C1189.22 417 1176.19 420.035 1161.27 420.035C1144.07 420.035 1128.4 415.609 1114.23 406.758C1100.07 397.654 1088.82 384.883 1080.47 368.445C1072.38 351.755 1068.33 332.535 1068.33 310.787ZM1226.9 311.166C1226.9 294.981 1222.34 282.21 1213.24 272.853C1204.39 263.496 1193.51 258.818 1180.62 258.818C1167.72 258.818 1156.72 263.496 1147.62 272.853C1138.76 281.957 1134.34 294.602 1134.34 310.787C1134.34 326.971 1138.76 339.869 1147.62 349.479C1156.72 358.835 1167.72 363.514 1180.62 363.514C1193.51 363.514 1204.39 358.835 1213.24 349.479C1222.34 340.122 1226.9 327.351 1226.9 311.166ZM1467.66 203.056C1492.45 203.056 1512.17 211.148 1526.84 227.333C1541.76 243.265 1549.22 265.267 1549.22 293.337V417H1484.73V302.062C1484.73 287.9 1481.07 276.899 1473.73 269.06C1466.4 261.22 1456.54 257.3 1444.14 257.3C1431.75 257.3 1421.89 261.22 1414.56 269.06C1407.22 276.899 1403.56 287.9 1403.56 302.062V417H1338.69V205.332H1403.56V233.402C1410.13 224.046 1418.98 216.712 1430.11 211.401C1441.24 205.838 1453.75 203.056 1467.66 203.056ZM1797.24 236.437C1797.24 251.863 1793.7 266.025 1786.62 278.923C1779.54 291.567 1768.66 301.809 1753.99 309.649C1739.33 317.488 1721.12 321.408 1699.37 321.408H1659.16V417H1594.3V150.708H1699.37C1720.61 150.708 1738.57 154.375 1753.24 161.708C1767.9 169.042 1778.9 179.158 1786.24 192.055C1793.57 204.952 1797.24 219.746 1797.24 236.437ZM1694.44 269.819C1706.83 269.819 1716.06 266.91 1722.13 261.094C1728.2 255.277 1731.23 247.058 1731.23 236.437C1731.23 225.816 1728.2 217.597 1722.13 211.78C1716.06 205.964 1706.83 203.056 1694.44 203.056H1659.16V269.819H1694.44ZM1818.11 310.787C1818.11 289.038 1822.16 269.945 1830.25 253.507C1838.6 237.069 1849.85 224.425 1864.01 215.574C1878.17 206.723 1893.98 202.297 1911.43 202.297C1926.35 202.297 1939.37 205.332 1950.5 211.401C1961.88 217.47 1970.6 225.436 1976.67 235.299V205.332H2041.54V417H1976.67V387.033C1970.35 396.895 1961.5 404.861 1950.12 410.931C1938.99 417 1925.97 420.035 1911.05 420.035C1893.85 420.035 1878.17 415.609 1864.01 406.758C1849.85 397.654 1838.6 384.883 1830.25 368.445C1822.16 351.755 1818.11 332.535 1818.11 310.787ZM1976.67 311.166C1976.67 294.981 1972.12 282.21 1963.02 272.853C1954.17 263.496 1943.29 258.818 1930.39 258.818C1917.5 258.818 1906.5 263.496 1897.39 272.853C1888.54 281.957 1884.12 294.602 1884.12 310.787C1884.12 326.971 1888.54 339.869 1897.39 349.479C1906.5 358.835 1917.5 363.514 1930.39 363.514C1943.29 363.514 1954.17 358.835 1963.02 349.479C1972.12 340.122 1976.67 327.351 1976.67 311.166ZM2153.33 136.293V417H2088.47V136.293H2153.33ZM2261.03 363.514H2352.83V417H2188.58V365.411L2276.59 258.818H2189.34V205.332H2350.94V256.921L2261.03 363.514Z" fill="#7CB518"></path></g><defs><filter id="filter0_d_15786_150" x="840.52" y="136.293" width="1516.31" height="291.742" filterUnits="userSpaceOnUse" color-interpolation-filters="sRGB"><feFlood flood-opacity="0" result="BackgroundImageFix"></feFlood><feColorMatrix in="SourceAlpha" type="matrix" values="0 0 0 0 0 0 0 0 0 0 0 0 0 0 0 0 0 0 127 0" result="hardAlpha"></feColorMatrix><feOffset dy="4"></feOffset><feGaussianBlur stdDeviation="2"></feGaussianBlur><feComposite in2="hardAlpha" operator="out"></feComposite><feColorMatrix type="matrix" values="0 0 0 0 0 0 0 0 0 0 0 0 0 0 0 0 0 0 0.25 0"></feColorMatrix><feBlend mode="normal" in2="BackgroundImageFix" result="effect1_dropShadow_15786_150"></feBlend><feBlend mode="normal" in="SourceGraphic" in2="effect1_dropShadow_15786_150" result="shape"></feBlend></filter><clipPath id="clip0_15786_150"><rect width="735.812" height="642" fill="white" transform="translate(0 12)"></rect></clipPath></defs></svg> 